<svg width="48" height="48" viewBox="0 0 48 48" fill="none" xmlns="http://www.w3.org/2000/svg">
<path d="M8 22H7V13H9V22H8ZM34.556 34.58C34.888 34.127 35.222 33.735 35.5 33.428C35.778 33.735 36.112 34.128 36.444 34.58C37.286 35.73 38 37.102 38 38.364C38 39.856 36.845 41 35.5 41C34.155 41 33 39.856 33 38.364C33 37.102 33.714 35.729 34.556 34.58ZM40 25H41V29H29V25H31V23C31 22.2044 30.6839 21.4413 30.1213 20.8787C29.5587 20.3161 28.7956 20 28 20V12H30C32.3869 12 34.6761 12.9482 36.364 14.636C38.0518 16.3239 39 18.6131 39 21V25H40ZM19 12H24V23H13V12H19Z" fill="#5AEE55" stroke="#5AEE55" stroke-width="1.66667"/>
</svg>
