<svg width="48" height="48" viewBox="0 0 48 48" fill="none" xmlns="http://www.w3.org/2000/svg">
<path fill-rule="evenodd" clip-rule="evenodd" d="M8 43C8 42.7348 8.10536 42.4804 8.29289 42.2929C8.48043 42.1054 8.73478 42 9 42H39C39.2652 42 39.5196 42.1054 39.7071 42.2929C39.8946 42.4804 40 42.7348 40 43C40 43.2652 39.8946 43.5196 39.7071 43.7071C39.5196 43.8946 39.2652 44 39 44H9C8.73478 44 8.48043 43.8946 8.29289 43.7071C8.10536 43.5196 8 43.2652 8 43Z" fill="#5AEE55"/>
<path fill-rule="evenodd" clip-rule="evenodd" d="M12 22V42H17V22H12ZM11 20C10.7348 20 10.4804 20.1054 10.2929 20.2929C10.1054 20.4804 10 20.7348 10 21V43C10 43.2652 10.1054 43.5196 10.2929 43.7071C10.4804 43.8946 10.7348 44 11 44H18C18.2652 44 18.5196 43.8946 18.7071 43.7071C18.8946 43.5196 19 43.2652 19 43V21C19 20.7348 18.8946 20.4804 18.7071 20.2929C18.5196 20.1054 18.2652 20 18 20H11Z" fill="#5AEE55"/>
<path fill-rule="evenodd" clip-rule="evenodd" d="M17 4L33 10V24H28C27.7348 24 27.4804 24.1054 27.2929 24.2929C27.1054 24.4804 27 24.7348 27 25V42H17V4ZM20 13H22V15H20V13ZM26 13H24V15H26V13ZM28 13H30V15H28V13ZM22 17H20V19H22V17ZM24 17H26V19H24V17ZM30 17H28V19H30V17ZM20 21H22V23H20V21ZM26 21H24V23H26V21ZM28 21H30V23H28V21ZM22 25H20V27H22V25ZM24 25H26V27H24V25ZM20 29H22V31H20V29ZM26 29H24V31H26V29ZM22 33H20V35H22V33ZM24 33H26V35H24V33ZM20 37H22V39H20V37ZM26 37H24V39H26V37Z" fill="#5AEE55"/>
<path fill-rule="evenodd" clip-rule="evenodd" d="M29 26V42H36V26H29ZM28 24C27.7348 24 27.4804 24.1054 27.2929 24.2929C27.1054 24.4804 27 24.7348 27 25V43C27 43.2652 27.1054 43.5196 27.2929 43.7071C27.4804 43.8946 27.7348 44 28 44H37C37.2652 44 37.5196 43.8946 37.7071 43.7071C37.8946 43.5196 38 43.2652 38 43V25C38 24.7348 37.8946 24.4804 37.7071 24.2929C37.5196 24.1054 37.2652 24 37 24H28Z" fill="#5AEE55"/>
<path fill-rule="evenodd" clip-rule="evenodd" d="M34 30H31V28H34V30ZM34 34H31V32H34V34ZM34 38H31V36H34V38ZM34 42H31V40H34V42ZM15 13V21H13V13H15Z" fill="#5AEE55"/>
</svg>
