<svg width="48" height="48" viewBox="0 0 48 48" fill="none" xmlns="http://www.w3.org/2000/svg">
<path fill-rule="evenodd" clip-rule="evenodd" d="M30.492 17.1419C30.7453 17.0765 31.0142 17.1129 31.2409 17.2434C31.4677 17.3739 31.6343 17.588 31.705 17.8399C32.0371 19.0287 32.0896 20.2781 31.8585 21.4906C31.6273 22.703 31.1187 23.8455 30.3726 24.8287C29.6264 25.8119 28.6629 26.6091 27.5573 27.1579C26.4518 27.7068 25.2343 27.9923 24 27.9923C22.7657 27.9923 21.5482 27.7068 20.4427 27.1579C19.3371 26.6091 18.3736 25.8119 17.6274 24.8287C16.8813 23.8455 16.3727 22.703 16.1415 21.4906C15.9104 20.2781 15.9629 19.0287 16.295 17.8399C16.3657 17.588 16.5323 17.3739 16.7591 17.2434C16.9858 17.1129 17.2547 17.0765 17.508 17.1419C21.23 18.1019 26.77 18.1019 30.492 17.1419ZM18.04 19.3139C17.9444 20.1537 18.0273 21.0042 18.2833 21.8097C18.5393 22.6152 18.9625 23.3575 19.5254 23.988C20.0882 24.6186 20.7779 25.1231 21.5493 25.4685C22.3206 25.814 23.1563 25.9925 24.0015 25.9925C24.8467 25.9925 25.6824 25.814 26.4537 25.4685C27.2251 25.1231 27.9148 24.6186 28.4776 23.988C29.0405 23.3575 29.4637 22.6152 29.7197 21.8097C29.9757 21.0042 30.0586 20.1537 29.963 19.3139C26.346 20.0439 21.656 20.0439 18.04 19.3139Z" fill="#5AEE55"/>
<path fill-rule="evenodd" clip-rule="evenodd" d="M19 28.49C13.013 29.535 6 32.203 6 36V42H42V36C42 32.203 34.987 29.535 29 28.49V33H19V28.49ZM13 42V33H15V42H13ZM34 33V42H36V33H34ZM25 6.058V10.48C25 10.7452 24.8946 10.9996 24.7071 11.1871C24.5196 11.3746 24.2652 11.48 24 11.48C23.7348 11.48 23.4804 11.3746 23.2929 11.1871C23.1054 10.9996 23 10.7452 23 10.48V6C21.9676 6.05457 20.9525 6.28804 20 6.69V12.48C20 12.7452 19.8946 12.9996 19.7071 13.1871C19.5196 13.3746 19.2652 13.48 19 13.48C18.7348 13.48 18.4804 13.3746 18.2929 13.1871C18.1054 12.9996 18 12.7452 18 12.48V7.935C16.63 9.113 15.84 10.641 15.589 11.98C15.5804 12.0266 15.5724 12.0732 15.565 12.12L15.545 12.14C15.456 12.769 15.505 13.287 15.633 13.643C15.715 13.8907 15.6969 14.1607 15.5826 14.3952C15.4683 14.6298 15.2669 14.8104 15.0212 14.8985C14.7756 14.9866 14.5053 14.9752 14.268 14.8667C14.0307 14.7583 13.8451 14.5614 13.751 14.318C13.7341 14.2717 13.718 14.225 13.703 14.178C7.896 21.76 40.136 21.756 34.287 14.165C34.2719 14.2139 34.2559 14.2626 34.239 14.311C34.1468 14.5552 33.9627 14.7537 33.7262 14.8641C33.4896 14.9744 33.2192 14.9879 32.9729 14.9016C32.7265 14.8153 32.5236 14.6361 32.4076 14.4022C32.2916 14.1683 32.2716 13.8984 32.352 13.65C32.496 13.236 32.538 12.72 32.46 12.15C32.454 12.1456 32.448 12.1413 32.442 12.137C32.226 10.785 31.404 9.29 30 8.112V12.48C30 12.7452 29.8946 12.9996 29.7071 13.1871C29.5196 13.3746 29.2652 13.48 29 13.48C28.7348 13.48 28.4804 13.3746 28.2929 13.1871C28.1054 12.9996 28 12.7452 28 12.48V6.862C27.6095 6.6866 27.2076 6.53793 26.797 6.417C26.2094 6.24576 25.6082 6.12532 25 6.057V6.058Z" fill="#5AEE55"/>
</svg>
