<svg width="48" height="48" viewBox="0 0 48 48" fill="none" xmlns="http://www.w3.org/2000/svg">
<path fill-rule="evenodd" clip-rule="evenodd" d="M28.425 9.6C28.425 10.5548 28.0457 11.4705 27.3706 12.1456C26.6955 12.8207 25.7798 13.2 24.825 13.2C23.8702 13.2 22.9545 12.8207 22.2794 12.1456C21.6043 11.4705 21.225 10.5548 21.225 9.6C21.225 8.64522 21.6043 7.72955 22.2794 7.05442C22.9545 6.37928 23.8702 6 24.825 6C25.7798 6 26.6955 6.37928 27.3706 7.05442C28.0457 7.72955 28.425 8.64522 28.425 9.6ZM38 28H23.752L28.238 32.426C28.4202 32.6059 28.5662 32.8191 28.668 33.054L31.335 39.204C31.4395 39.445 31.4956 39.7042 31.4999 39.9668C31.5043 40.2295 31.4569 40.4904 31.3604 40.7347C31.2639 40.979 31.1203 41.2019 30.9376 41.3907C30.755 41.5795 30.537 41.7305 30.296 41.835C30.055 41.9395 29.7958 41.9956 29.5332 41.9999C29.2705 42.0043 29.0096 41.9569 28.7653 41.8604C28.521 41.7639 28.2981 41.6203 28.1093 41.4376C27.9205 41.255 27.7695 41.037 27.665 40.796L25.152 35L18.057 28H10C9.46957 28 8.96086 28.2107 8.58579 28.5858C8.21071 28.9609 8 29.4696 8 30V42H6V30C6 28.9391 6.42143 27.9217 7.17157 27.1716C7.92172 26.4214 8.93913 26 10 26H15.964C15.215 23.478 15.49 20.872 16.081 18.856C16.398 17.775 16.826 16.79 17.305 16.004C17.5389 15.6125 17.8131 15.2465 18.123 14.912C18.406 14.613 18.833 14.237 19.403 14.025C20.645 13.564 21.947 13.599 23.108 14.199C24.221 14.775 25.005 15.764 25.513 16.855C25.723 17.305 25.916 17.725 26.097 18.118V18.119C26.537 19.069 26.904 19.867 27.257 20.569C27.753 21.555 28.145 22.193 28.525 22.635C28.872 23.04 29.211 23.282 29.643 23.451C30.113 23.635 30.789 23.768 31.86 23.8C32.1344 23.8082 32.4042 23.8729 32.6526 23.9899C32.9009 24.1069 33.1225 24.2738 33.3036 24.4802C33.4846 24.6865 33.6213 24.928 33.7049 25.1895C33.7886 25.4509 33.8176 25.7268 33.79 26H38C39.0609 26 40.0783 26.4214 40.8284 27.1716C41.5786 27.9217 42 28.9391 42 30V42H40V30C40 29.4696 39.7893 28.9609 39.4142 28.5858C39.0391 28.2107 38.5304 28 38 28ZM24.363 23.627L23.848 26H26.24C25.972 25.7651 25.7213 25.5111 25.49 25.24C25.0669 24.7371 24.6898 24.1972 24.363 23.627ZM16.486 29.773L19.786 32.939L18.539 37.149C18.489 37.32 18.415 37.484 18.321 37.635L16.199 41.055C15.9192 41.5057 15.4718 41.8269 14.9552 41.9477C14.4387 42.0686 13.8952 41.9793 13.4445 41.6995C12.9938 41.4197 12.6726 40.9723 12.5518 40.4557C12.4309 39.9392 12.5202 39.3957 12.8 38.945L14.78 35.755L16.122 31.227L16.486 29.773Z" fill="#5AEE55"/>
</svg>
