<svg width="19" height="18" viewBox="0 0 19 18" fill="none" xmlns="http://www.w3.org/2000/svg">
<path d="M5.49823 0.843018C5.67669 0.84302 5.85189 0.890778 6.00566 0.981337C6.15944 1.0719 6.28618 1.20195 6.37273 1.35802L7.59573 3.56102C7.67459 3.70312 7.71762 3.86231 7.7211 4.02479C7.72459 4.18728 7.68842 4.34816 7.61573 4.49352L6.43773 6.85052C6.43773 6.85052 6.77923 8.60602 8.20823 10.0355C9.63773 11.4645 11.3872 11.8005 11.3872 11.8005L13.7437 10.622C13.8891 10.5492 14.0501 10.513 14.2127 10.5165C14.3753 10.52 14.5346 10.5631 14.6767 10.642L16.8867 11.871C17.0424 11.9577 17.1721 12.0845 17.2624 12.2381C17.3527 12.3918 17.4003 12.5668 17.4002 12.745V15.2815C17.4002 16.5735 16.2002 17.5065 14.9762 17.0935C12.4622 16.245 8.55973 14.63 6.08623 12.1565C3.61323 9.68302 1.99773 5.78102 1.14973 3.26652C0.736727 2.04302 1.66973 0.843018 2.96173 0.843018H5.49773H5.49823Z" stroke="#023003" stroke-width="1.5" stroke-linejoin="round"/>
</svg>
