<svg width="208" height="31" viewBox="0 0 208 31" fill="none" xmlns="http://www.w3.org/2000/svg">
<path fill-rule="evenodd" clip-rule="evenodd" d="M6.10352e-05 7.63294C-0.00170898 7.63215 -0.00311279 7.63136 3.45465 3.81656C6.91243 0.00201416 6.91138 0.00148773 6.91031 0.000961304L6.92233 0.00674248C6.93611 0.0138416 6.9612 0.0261974 6.99654 0.0435505C7.06757 0.078516 7.18102 0.133991 7.33582 0.208658C7.6461 0.35799 8.12181 0.584093 8.75548 0.876184C10.0225 1.46037 11.9182 2.3072 14.3751 3.32965C19.2924 5.37587 26.4405 8.11748 35.2846 10.8615C53.0184 16.3639 77.3193 21.7982 104 21.7982C130.681 21.7982 154.982 16.3639 172.715 10.8615C181.559 8.11748 188.708 5.37587 193.625 3.32965C196.082 2.3072 197.978 1.46037 199.245 0.876184C199.878 0.584093 200.354 0.35799 200.664 0.208658C200.819 0.133991 200.933 0.078516 201.004 0.0435505C201.039 0.0261974 201.064 0.0138416 201.078 0.00674248L201.09 0.000961304C201.089 0.00148773 201.088 0.00201416 204.545 3.81656C208.003 7.63136 208.002 7.63215 208 7.63294L207.984 7.64109L207.947 7.65923C207.918 7.67395 207.877 7.69393 207.826 7.71917C207.723 7.76991 207.577 7.84116 207.389 7.93187C207.012 8.11327 206.467 8.37224 205.761 8.69772C204.349 9.34868 202.294 10.266 199.663 11.3607C194.405 13.5486 186.828 16.4527 177.477 19.3542C158.821 25.1429 132.849 31 104 31C75.1511 31 49.1793 25.1429 30.5231 19.3542C21.1715 16.4527 13.5951 13.5486 8.33669 11.3605C5.70625 10.266 3.65114 9.34868 2.23927 8.69772C1.53351 8.37224 0.987854 8.11327 0.611481 7.93187C0.423111 7.84116 0.277145 7.76991 0.174301 7.71917C0.123062 7.69393 0.0824127 7.67395 0.0527344 7.65923L0.0166626 7.64109L6.10352e-05 7.63294ZM6.90926 0.000436783C6.90855 -8.96454e-05 6.90819 -9.15527e-05 6.90889 0.000171661L6.90926 0.000436783Z" fill="#5AEE55"/>
</svg>
