<svg width="69" height="77" viewBox="0 0 69 77" fill="none" xmlns="http://www.w3.org/2000/svg">
<path d="M2.50163 35.4088C3.91483 35.3837 7.97063 35.3298 9.38223 35.4088C11.3201 31.4229 14.3765 28.3446 18.4057 26.4614C20.8691 25.3095 23.8868 24.9745 25.9203 23.0343C26.7063 22.2856 27.2849 21.2856 27.7853 20.2308C29.6032 16.3976 30.5524 12.3713 31.9451 8.3847C32.6353 6.4066 33.5056 3.985 35.3471 2.76698C39.1082 0.280071 42.5382 4.3464 43.3325 7.7521C44.8429 14.2325 42.9847 21.1859 39.9822 26.9768C46.4839 26.3427 53.1882 26.2494 59.5669 27.8463C62.5929 28.6034 65.8096 30.3287 66.0571 33.8103C66.2318 36.2585 65.1262 38.8595 63.3204 40.5104C62.7289 41.0503 60.7917 42.3189 60.8016 42.3264C60.8608 42.3712 61.889 45.7195 62.1214 47.0461C62.82 51.0366 60.1212 54.0449 56.3798 54.9516C59.3019 58.3581 57.0754 65.1873 51.9269 65.8722C52.1502 73.5486 43.1715 73.9442 37.8013 74.415C23.2929 75.687 18.6798 74.6025 8.96302 72.2059C7.88632 71.9401 3.21892 71.6306 2.10952 71.6283" stroke="#5AEE55" stroke-width="4" stroke-miterlimit="1.5" stroke-linecap="round" stroke-linejoin="round"/>
</svg>
