<svg width="17" height="17" viewBox="0 0 17 17" fill="none" xmlns="http://www.w3.org/2000/svg">
<path d="M8.54732 7.48158L5.24732 10.7816C5.18582 10.8453 5.11226 10.896 5.03093 10.931C4.94959 10.9659 4.86211 10.9843 4.77359 10.9851C4.68507 10.9859 4.59728 10.969 4.51535 10.9355C4.43342 10.9019 4.35899 10.8524 4.29639 10.7898C4.2338 10.7273 4.18429 10.6528 4.15077 10.5709C4.11725 10.489 4.10039 10.4012 4.10116 10.3126C4.10192 10.2241 4.12032 10.1366 4.15525 10.0553C4.19019 9.97398 4.24098 9.90041 4.30466 9.83892L8.07599 6.06758C8.20101 5.9426 8.37055 5.87239 8.54732 5.87239C8.7241 5.87239 8.89364 5.9426 9.01866 6.06758L12.79 9.83892C12.8537 9.90041 12.9045 9.97398 12.9394 10.0553C12.9743 10.1366 12.9927 10.2241 12.9935 10.3126C12.9943 10.4012 12.9774 10.489 12.9439 10.5709C12.9104 10.6528 12.8608 10.7273 12.7983 10.7898C12.7357 10.8524 12.6612 10.9019 12.5793 10.9355C12.4974 10.969 12.4096 10.9859 12.3211 10.9851C12.2325 10.9843 12.1451 10.9659 12.0637 10.931C11.9824 10.896 11.9088 10.8453 11.8473 10.7816L8.54732 7.48158Z" fill="#5AEE55"/>
</svg>
