<svg width="20" height="20" viewBox="0 0 20 20" fill="none" xmlns="http://www.w3.org/2000/svg">
<path d="M6.76688 7.74166L10.0002 10.975L13.2335 7.74166C13.3107 7.66451 13.4023 7.60331 13.5031 7.56156C13.6039 7.51981 13.7119 7.49831 13.821 7.49831C13.9302 7.49831 14.0382 7.51981 14.139 7.56156C14.2398 7.60331 14.3314 7.66451 14.4085 7.74166C14.4857 7.81882 14.5469 7.91041 14.5887 8.01121C14.6304 8.11202 14.6519 8.22006 14.6519 8.32916C14.6519 8.43827 14.6304 8.54631 14.5887 8.64712C14.5469 8.74792 14.4857 8.83951 14.4085 8.91666L10.5835 12.7417C10.5065 12.8189 10.4149 12.8802 10.3141 12.922C10.2133 12.9638 10.1052 12.9854 9.99605 12.9854C9.88691 12.9854 9.77884 12.9638 9.67803 12.922C9.57722 12.8802 9.48564 12.8189 9.40855 12.7417L5.58355 8.91666C5.50629 8.83957 5.445 8.748 5.40319 8.64718C5.36137 8.54637 5.33984 8.4383 5.33984 8.32916C5.33984 8.22002 5.36137 8.11196 5.40319 8.01114C5.445 7.91033 5.50629 7.81876 5.58355 7.74166C5.90855 7.425 6.44188 7.41666 6.76688 7.74166Z" fill="#3D4756"/>
</svg>
