<svg width="72" height="71" viewBox="0 0 72 71" fill="none" xmlns="http://www.w3.org/2000/svg">
<g clip-path="url(#clip0_2_137)">
<path d="M18.2634 52.9741C27.1465 61.8571 35.9411 35.2964 35.9411 35.2964C35.9411 35.2964 9.38041 44.091 18.2634 52.9741Z" fill="#5AEE55"/>
<path d="M53.6187 17.6187C62.5018 26.5018 35.9411 35.2964 35.9411 35.2964C35.9411 35.2964 44.7357 8.7357 53.6187 17.6187Z" fill="#5AEE55"/>
<path d="M42.4115 59.4446C54.546 56.1931 35.9411 35.2964 35.9411 35.2964C35.9411 35.2964 30.277 62.696 42.4115 59.4446Z" fill="#5AEE55"/>
<path d="M29.4706 11.1483C41.6051 7.89683 35.9411 35.2964 35.9411 35.2964C35.9411 35.2964 17.3361 14.3997 29.4706 11.1483Z" fill="#5AEE55"/>
<path d="M60.0892 41.7669C56.8377 53.9014 35.941 35.2964 35.941 35.2964C35.941 35.2964 63.3406 29.6324 60.0892 41.7669Z" fill="#5AEE55"/>
<path d="M11.793 28.8259C8.54154 40.9604 35.9411 35.2964 35.9411 35.2964C35.9411 35.2964 15.0444 16.6915 11.793 28.8259Z" fill="#5AEE55"/>
</g>
<defs>
<clipPath id="clip0_2_137">
<rect width="50" height="50" fill="white" transform="translate(0.644653 35.3553) rotate(-45)"/>
</clipPath>
</defs>
</svg>
