<svg width="32" height="32" viewBox="0 0 32 32" fill="none" xmlns="http://www.w3.org/2000/svg">
<path fill-rule="evenodd" clip-rule="evenodd" d="M4.66663 9.33333C4.66663 8.96426 4.9623 8.66666 5.32449 8.66666H26.6754C27.0399 8.66666 27.3333 8.96119 27.3333 9.33333C27.3333 9.7024 27.0376 10 26.6754 10H5.32449C4.95999 10 4.66663 9.70547 4.66663 9.33333ZM4.66663 16C4.66663 15.6309 4.9623 15.3333 5.32449 15.3333H26.6754C27.0399 15.3333 27.3333 15.6279 27.3333 16C27.3333 16.3691 27.0376 16.6667 26.6754 16.6667H5.32449C4.95999 16.6667 4.66663 16.3721 4.66663 16ZM4.66663 22.6667C4.66663 22.2976 4.9623 22 5.32449 22H26.6754C27.0399 22 27.3333 22.2945 27.3333 22.6667C27.3333 23.0357 27.0376 23.3333 26.6754 23.3333H5.32449C4.95999 23.3333 4.66663 23.0388 4.66663 22.6667Z" stroke="#5AEE55"/>
</svg>
