<svg width="78" height="78" viewBox="0 0 78 78" fill="none" xmlns="http://www.w3.org/2000/svg">
<path fill-rule="evenodd" clip-rule="evenodd" d="M53.628 13.0084C54.7616 9.42853 56.0909 6.07581 57.7856 2.72877C58.3016 1.10023 60.0429 0.196742 61.6714 0.712816C63.3 1.22889 64.2032 2.97013 63.6872 4.59866C63.4258 6.46392 63.3429 8.28008 63.2581 10.1315C63.2336 10.6702 63.2088 11.2119 63.1794 11.7587C63.1306 12.6715 63.1136 13.5796 63.0965 14.4864L63.0962 14.4899C63.0901 14.8131 63.0842 15.1361 63.0765 15.459C64.4066 15.2246 65.7389 15.0031 67.072 14.8392C68.8613 14.6192 70.6496 14.4813 72.437 14.5194C75.1162 14.5194 77.292 16.6946 77.292 19.3741C77.292 22.0536 75.1162 24.2288 72.437 24.2288C71.1136 24.2569 69.7962 24.4304 68.4792 24.6465C66.7544 24.9294 65.0341 25.3047 63.3181 25.679C62.7448 25.8041 62.1717 25.9291 61.5992 26.0505C60.9701 28.7302 60.2082 31.3817 59.4216 34.0163C59.244 34.9518 59.0632 35.8862 58.8768 36.8198C63.4338 36.3449 68.0042 36.0947 72.5898 36.1848C75.2693 36.1848 77.4445 38.3603 77.4445 41.0398C77.4445 43.719 75.2693 45.8947 72.5898 45.8947C70.0642 45.9494 67.5536 46.151 65.0445 46.3966C62.1426 46.6806 59.2568 47.1142 56.3688 47.5603C56.341 47.659 56.3136 47.7577 56.2858 47.8563C55.6248 50.2011 54.9013 52.527 54.1781 54.851V54.8513C52.8778 59.0307 51.5794 63.2043 50.6501 67.4718C50.1248 70.099 47.565 71.8059 44.9373 71.2801C42.3101 70.7547 40.6037 68.195 41.129 65.5675C42.1333 59.9854 43.5128 54.4739 45.0877 49.0086C44.684 49.0401 44.2802 49.0705 43.8765 49.1009C42.0626 49.2377 40.2496 49.3742 38.4432 49.6017C37.5096 49.7192 36.5834 49.8795 35.6576 50.0395C34.9754 50.1574 34.2933 50.2753 33.6088 50.3761C30.4872 50.9342 27.3541 51.3422 24.1893 51.5105C23.7611 53.0294 23.2965 54.5366 22.8324 56.0419L22.8323 56.0422C22.5004 57.119 22.1688 58.195 21.8509 59.2737C21.3833 60.7633 20.7551 62.3001 20.1157 63.8641C19.3807 65.6622 18.6309 67.4966 18.0933 69.3366C17.772 70.4366 17.5058 71.5299 17.4831 72.6225C17.4831 75.3019 15.3075 77.4771 12.6283 77.4771C9.94878 77.4771 7.77323 75.3019 7.77323 72.6225C7.73307 70.6865 8.0423 68.7203 8.5335 66.7497C9.00731 64.8486 9.69923 62.9451 10.3773 61.0795C10.9611 59.4734 11.5346 57.8955 11.9498 56.3718C12.1696 55.6176 12.3851 54.8617 12.6007 54.1051C12.8432 53.2539 13.0859 52.4022 13.3352 51.5521C13.0992 51.5582 12.8616 51.5649 12.6229 51.5715C11.1232 51.6134 9.57769 51.6566 8.10206 51.5854C6.28089 51.4977 4.61606 51.3792 3.17731 50.8913C1.49296 50.6051 0.357733 49.0054 0.644205 47.3209C0.819474 46.2905 1.48007 45.7849 3.93331 44.9438C4.38598 44.7886 10.5238 43.1193 10.9846 42.9705C13.0389 42.3083 15.0311 41.7931 16.7716 41.4659C16.8158 41.4617 16.86 41.4574 16.9043 41.4531C17.6379 39.5931 18.3589 37.7283 18.9712 35.8233C19.5634 33.9817 20.0365 32.1129 20.5095 30.2451L20.5097 30.2443C20.6785 29.5777 20.8472 28.911 21.0214 28.2459C20.5472 28.2648 20.0731 28.2782 19.5987 28.2827C18.3118 28.295 17.2824 28.3193 16.2169 28.3443C15.0357 28.3721 13.8099 28.4009 12.1402 28.4158C11.0986 28.4249 10.108 28.5638 9.14344 28.699C7.22656 28.9678 5.41264 29.2222 3.50614 28.4158C2.72147 28.0838 1.93838 27.6203 1.60925 27.3382C-0.74837 25.3159 1.9888 22.8386 3.94795 22.0519C5.51502 21.4238 9.29459 20.0647 10.1259 19.7899L10.3624 19.7216C13.2669 18.8825 16.0815 18.0693 19.0343 17.7793C20.7386 17.6121 22.4519 17.641 24.1769 17.746C24.3666 17.2699 24.5621 16.796 24.7582 16.3209L24.7583 16.3206C25.2413 15.1501 25.7274 13.9715 26.1386 12.7309C26.6752 11.2975 28.4261 7.40384 29.2728 5.74757C30.7506 2.85653 33.6133 3.05024 33.733 3.12061C37.4594 4.57077 34.8488 12.0878 34.6096 14.9225C34.5024 16.1907 34.3973 17.4364 34.2485 18.6671C34.8429 18.7017 35.4373 18.7248 36.0325 18.7326C37.1666 18.7471 38.2978 18.6803 39.4253 18.5993C41.6058 18.442 43.7568 18.1207 45.9168 17.798C47.125 17.6176 48.3357 17.4367 49.5562 17.2838C50.5397 17.1605 51.528 17.0586 52.5202 16.9586C52.7965 15.6327 53.2026 14.3508 53.6122 13.0577L53.628 13.0084ZM26.7541 41.1638C28.6816 41.2259 30.6077 41.2768 32.5376 41.163C32.9112 41.131 33.2853 41.1019 33.6597 41.0728C34.8373 40.9817 36.0157 40.8902 37.184 40.7065C39.2773 40.3777 41.3338 39.8782 43.3925 39.3782C45.0333 38.9795 46.6752 38.5809 48.3378 38.2681C48.4152 38.2534 48.4922 38.239 48.5696 38.2248C49.3024 36.1238 50.0258 34.0222 50.6664 31.8902C50.9365 30.4582 51.1248 29.0147 51.2794 27.5662C50.4408 27.647 49.6029 27.7134 48.7648 27.7593C46.6882 27.8731 44.6242 27.816 42.5584 27.759C41.1093 27.719 39.6592 27.679 38.2034 27.6976C36.6832 27.7174 35.1634 27.7827 33.6376 27.8483C33.0133 27.875 32.3882 27.9019 31.7616 27.9256C31.7176 28.0387 31.6733 28.1521 31.629 28.2654C31.3949 28.8654 31.16 29.4678 30.9317 30.0763C30.5992 30.8883 30.2552 31.6958 29.9114 32.5033L29.9112 32.5035C29.0565 34.5112 28.2013 36.5192 27.5184 38.5998C27.24 39.448 26.9885 40.3035 26.7541 41.1638Z" fill="#5AEE55"/>
</svg>
