<svg width="32" height="31" viewBox="0 0 32 31" fill="none" xmlns="http://www.w3.org/2000/svg">
<path fill-rule="evenodd" clip-rule="evenodd" d="M22.6667 6.53667V17.665C22.6667 18.8742 22.21 19.8317 21.4592 20.4675C20.7267 21.0867 19.7817 21.3425 18.8775 21.3042C17.8325 21.2608 16.7408 20.8067 16.0075 19.96C15.8183 21.485 16.3633 22.4992 16.6108 22.7667L17.1775 23.3775L15.9558 24.5108L15.3892 23.9C14.7108 23.1683 13.9825 21.4442 14.4483 19.1917C13.7355 19.3417 12.9994 19.3434 12.2858 19.1967C11.5383 19.0383 10.8033 18.6975 10.2467 18.125C9.67668 17.5392 9.33334 16.75 9.33334 15.8C9.33334 14.43 9.82251 13.44 10.6967 12.7167C11.505 12.0475 12.6025 11.6458 13.7125 11.2867C13.9725 11.2033 14.2383 11.12 14.5092 11.0342C16.625 10.37 19.0292 9.615 21.295 7.69833L22.6667 6.53667ZM16.8008 17.6133C17.1517 16.97 17.6342 16.2817 18.2858 15.5575L18.8442 14.9383L17.605 13.8233L17.0467 14.4425C16.2217 15.3592 15.62 16.2508 15.1933 17.0967C14.5667 17.5567 13.5583 17.7625 12.6308 17.5658C12.1283 17.4592 11.7175 17.2467 11.4408 16.9625C11.1775 16.6925 11 16.3225 11 15.7992C11 14.8942 11.2917 14.3867 11.7592 13.9992C12.2917 13.5592 13.0958 13.2375 14.2258 12.8717C14.4717 12.7925 14.73 12.7117 14.9975 12.6275C16.73 12.0867 18.8808 11.415 21 10.0017V17.665C21 18.4275 20.7275 18.9033 20.3833 19.1942C20.0208 19.5008 19.5058 19.6625 18.9475 19.6392C17.8408 19.5933 16.8558 18.8692 16.8008 17.6133Z" fill="#5AEE55"/>
<path d="M16.8008 17.6133C17.1517 16.97 17.6342 16.2817 18.2858 15.5575L18.8442 14.9383L17.605 13.8233L17.0467 14.4425C16.2217 15.3592 15.62 16.2508 15.1933 17.0967C14.5667 17.5567 13.5583 17.7625 12.6308 17.5658C12.1283 17.4592 11.7175 17.2467 11.4408 16.9625C11.1775 16.6925 11 16.3225 11 15.7992C11 14.8942 11.2917 14.3867 11.7592 13.9992C12.2917 13.5592 13.0958 13.2375 14.2258 12.8717C14.4717 12.7925 14.73 12.7117 14.9975 12.6275C16.73 12.0867 18.8808 11.415 21 10.0017V17.665C21 18.4275 20.7275 18.9033 20.3833 19.1942C20.0208 19.5008 19.5058 19.6625 18.9475 19.6392C17.8408 19.5933 16.8558 18.8692 16.8008 17.6133Z" fill="#5AEE55"/>
<path fill-rule="evenodd" clip-rule="evenodd" d="M16 29.1667L15.6367 29.9167L15.6333 29.915L15.6233 29.91L15.5875 29.8925L15.4542 29.8258C15.3392 29.7675 15.1725 29.6808 14.9617 29.5675C12.4641 28.2161 10.1161 26.605 7.95667 24.7608C4.15334 21.4883 0.166672 16.6358 0.166672 10.6033C0.166672 7.8925 1.06417 5.26667 2.60084 3.30333C4.1425 1.33583 6.36 0 8.96834 0C12.0667 0 14.4183 1.75583 16 4.23167C17.5825 1.75667 19.9333 0 23.0317 0C25.64 0 27.8575 1.33583 29.3983 3.30417C30.9367 5.26667 31.8333 7.89167 31.8333 10.6042C31.8333 16.4067 27.84 21.26 24.0492 24.5808C21.7451 26.5829 19.2358 28.336 16.5633 29.8108C16.5193 29.8347 16.4751 29.8583 16.4308 29.8817L16.395 29.9008L16.3858 29.9058L16.3817 29.9075L16 29.1667ZM3.91334 4.33083C2.61751 5.98583 1.83334 8.245 1.83334 10.6033C1.83334 15.8883 5.34667 20.3175 9.04334 23.4975C11.1802 25.3209 13.5092 26.9064 15.9892 28.2258L16.2342 28.0892C18.6247 26.7275 20.8746 25.1325 22.9508 23.3275C26.6592 20.0775 30.1667 15.65 30.1667 10.6025C30.1667 8.24417 29.3825 5.98583 28.0867 4.33083C26.795 2.68167 25.0283 1.66667 23.0317 1.66667C20.27 1.66667 18.1317 3.4725 16.7483 6.3L16 7.83083L15.2517 6.30167C13.8683 3.4725 11.73 1.66667 8.96834 1.66667C6.97167 1.66667 5.20501 2.68167 3.91334 4.33083Z" fill="#5AEE55"/>
<path d="M16 29.1667L16.3817 29.9075L16.0117 30.0975L15.6367 29.9167L16 29.1667Z" fill="#5AEE55"/>
</svg>
