<svg width="12" height="12" viewBox="0 0 12 12" fill="none" xmlns="http://www.w3.org/2000/svg">
<path d="M8.98842 5.38093L5.69675 2.08926C5.54495 1.93209 5.46095 1.72159 5.46285 1.50309C5.46475 1.2846 5.55239 1.07559 5.7069 0.92108C5.86141 0.766573 6.07042 0.678932 6.28891 0.677033C6.50741 0.675135 6.71791 0.75913 6.87508 0.910929L11.5892 5.6251C11.6669 5.70231 11.7285 5.79411 11.7706 5.89522C11.8126 5.99633 11.8343 6.10476 11.8343 6.21426C11.8343 6.32377 11.8126 6.4322 11.7706 6.53331C11.7285 6.63442 11.6669 6.72622 11.5892 6.80343L6.87508 11.5176C6.79821 11.5972 6.70626 11.6607 6.60459 11.7043C6.50292 11.748 6.39357 11.771 6.28292 11.772C6.17227 11.7729 6.06253 11.7518 5.96012 11.7099C5.85771 11.668 5.76466 11.6062 5.68642 11.5279C5.60818 11.4497 5.5463 11.3566 5.5044 11.2542C5.4625 11.1518 5.44141 11.0421 5.44237 10.9314C5.44333 10.8208 5.46632 10.7114 5.51 10.6098C5.55367 10.5081 5.61716 10.4161 5.69675 10.3393L8.98842 7.0476H1.00008C0.779068 7.0476 0.567106 6.9598 0.410826 6.80352C0.254545 6.64724 0.166748 6.43528 0.166748 6.21426C0.166748 5.99325 0.254545 5.78129 0.410826 5.62501C0.567106 5.46873 0.779068 5.38093 1.00008 5.38093H8.98842Z" fill="#5AEE55"/>
</svg>
