<svg width="24" height="24" viewBox="0 0 24 24" fill="none" xmlns="http://www.w3.org/2000/svg">
<path d="M4.89744 6.79487C5.94536 6.79487 6.79487 5.94536 6.79487 4.89744C6.79487 3.84951 5.94536 3 4.89744 3C3.84951 3 3 3.84951 3 4.89744C3 5.94536 3.84951 6.79487 4.89744 6.79487Z" stroke="#023003" stroke-width="1.2"/>
<path d="M3 9.64099H6.79487V21.5H3V9.64099ZM10.5897 14.1474V21.5H13.9103V14.8589C13.9103 13.673 14.6218 12.7243 15.8077 12.7243C16.9936 12.7243 17.7051 13.9102 17.7051 14.8589V21.5H21.0256V14.1474C21.0256 12.7243 19.3654 9.64099 15.8077 9.64099C12.25 9.64099 10.5897 12.7243 10.5897 14.1474Z" stroke="#023003" stroke-width="1.2" stroke-linejoin="round"/>
</svg>
