<svg id="logo" xmlns="http://www.w3.org/2000/svg" viewBox="0 0 746.73 160"><defs><style>.cls-1{fill:#023003;}.cls-2{fill:#5aee55;}</style></defs><title>logo + pattern</title><g id="texts"><polygon class="cls-1" points="14.88 44.42 47.11 44.42 47.11 73 61.98 73 61.98 0.93 47.11 0.93 47.11 29.51 14.88 29.51 14.88 0.93 0 0.93 0 73 14.88 73 14.88 44.42"/><path class="cls-1" d="M395.82,493v-51H380.94v28.67c0,7-4.26,10.95-10.18,10.95q-8.42,0-8.41-10.13V442.09H348.71v31.54c0,12.79,6.65,20.17,18.65,20.17,6.35,0,11.29-2.77,14.82-8.4V493Z" transform="translate(-273.09 -420.04)"/><path class="cls-1" d="M473.91,463.55V493h14.88V461.4c0-12.69-6.55-20.07-18.83-20.07-7.48,0-13.11,2.87-16.89,8.5-3.38-5.63-8.7-8.5-16.07-8.5a16.91,16.91,0,0,0-15.15,8.4v-7.64H408.21v51h14.88V464.58c0-7.07,4.26-11.16,10.18-11.16q8.42,0,8.41,10.13V493h13.64V464.58c0-7.07,4.26-11.16,10.18-11.16Q473.92,453.42,473.91,463.55Z" transform="translate(-273.09 -420.04)"/><path class="cls-1" d="M517.73,462.35q-8.58,0-14.1,4.61A14,14,0,0,0,498,478.22c0,9.73,7.86,15.77,19.3,15.77,5.72,0,11.75-2.77,14.86-7.37V493h13.63v-29.2a22.34,22.34,0,0,0-20.92-22.46c-14.19-.71-24,6.29-27.09,17.57l13.75,2.25c1.54-5.63,4.92-8.4,10.36-8.4,6.05,0,9,3.07,9,9.32v5.15S523.24,462.35,517.73,462.35Zm13.21,15.56c-3,4.2-6.44,6.25-10.42,6.25-4.9,0-8.17-2.46-8.17-6.14s3.27-6.15,8.17-6.15a13.44,13.44,0,0,1,10.42,5Z" transform="translate(-273.09 -420.04)"/><path class="cls-1" d="M591.68,463.76V493h14.87V461.4c0-12.69-7-20.07-19.35-20.07a17.12,17.12,0,0,0-15.35,8.4v-7.64H558.21v51h14.87V464.68c0-7.07,4.2-11.26,10.1-11.26C588.88,453.42,591.68,456.9,591.68,463.76Z" transform="translate(-273.09 -420.04)"/><path class="cls-1" d="M670.71,476c-2.38-2-5.69-6-9.82-11.92l-7.23-10.3,26.86-31.59h-19.1l-26.35,33v-33H620.19V493h14.88V471l6.61-7.65,5.27,7.75c5.88,8.66,10.84,14.47,15,17.63s9.19,4.69,15.28,4.69a12.07,12.07,0,0,0,3.72-.61V478.77a7.93,7.93,0,0,1-2.48.31A11.63,11.63,0,0,1,670.71,476Z" transform="translate(-273.09 -420.04)"/><path class="cls-1" d="M695.65,436.45a8.09,8.09,0,1,0-8.27-8.09A8,8,0,0,0,695.65,436.45Z" transform="translate(-273.09 -420.04)"/><rect class="cls-1" x="415.28" y="22.05" width="14.88" height="50.95"/><path class="cls-1" d="M749.11,463.76V493H764V461.4c0-12.69-7-20.07-19.35-20.07a17.12,17.12,0,0,0-15.36,8.4v-7.64H715.64v51h14.88V464.68c0-7.07,4.2-11.26,10.1-11.26C746.31,453.42,749.11,456.9,749.11,463.76Z" transform="translate(-273.09 -420.04)"/><path class="cls-1" d="M811.1,449.35c-2.94-5.53-8.25-8.29-15.71-8.29a21,21,0,0,0-16.55,7.47c-4.39,5-6.64,11.36-6.64,19s2.25,13.93,6.75,18.94A21.28,21.28,0,0,0,795.7,494c7.56,0,16.64-9.83,16.64-9.83V493H826V422.21H811.1Zm-3.35,28.87a10.72,10.72,0,0,1-8.58,4.3c-7.25,0-11.75-5.63-11.75-14.95s4.5-15.05,11.75-15.05c6.84,0,12,6.45,12,15.05A16.79,16.79,0,0,1,807.75,478.22Z" transform="translate(-273.09 -420.04)"/></g><g id="icon"><path class="cls-2" d="M1006.88,437.6c-8.18-10.46-20-17.56-33.83-17.56-15.34,0-27.22,8.09-35.58,19.83a2.19,2.19,0,0,1-3.58,0C925.54,428.13,913.65,420,898.31,420c-13.86,0-25.65,7.1-33.84,17.55a63.58,63.58,0,0,0-12.94,38.8c0,32.06,21.19,57.85,41.4,75.24a215.34,215.34,0,0,0,37.23,25.55c1.12.6,2,1.06,2.62,1.37l.71.35.19.1.05,0h0l1.26.61a1.61,1.61,0,0,0,1.45,0l1.25-.64h0l0,0,.19-.1.7-.38a230.42,230.42,0,0,0,39.79-27.8c20.14-17.65,41.37-43.44,41.37-74.28C1019.83,462,1015.06,448,1006.88,437.6ZM972.62,544a220.9,220.9,0,0,1-35.7,25.31,2.72,2.72,0,0,1-2.61,0,206.23,206.23,0,0,1-35.6-24.42c-19.65-16.9-38.32-40.44-38.32-68.53a54.78,54.78,0,0,1,11.05-33.34c6.87-8.76,16.26-14.16,26.87-14.16,14.68,0,26,9.6,33.39,24.64l1.55,3.16a2.71,2.71,0,0,0,4.86,0l1.54-3.17c7.36-15,18.72-24.63,33.4-24.63,10.61,0,20,5.4,26.87,14.16A54.75,54.75,0,0,1,1011,476.38C1011,503.21,992.33,526.74,972.62,544Z" transform="translate(-273.09 -420.04)"/><path class="cls-2" d="M967.33,458l-3.51,3c-12,10.19-24.82,14.2-36.06,17.73L923.52,480c-5.89,1.91-11.73,4-16,7.6-4.65,3.84-7.25,9.11-7.25,16.39a17.31,17.31,0,0,0,4.85,12.35,21.06,21.06,0,0,0,10.84,5.7,28.14,28.14,0,0,0,8.44.44,2.29,2.29,0,0,1,2.55,2.52c-1.31,10.5,2.21,18.48,5.5,22l1.45,1.57a2.3,2.3,0,0,0,3.25.12l3.12-2.9a2.3,2.3,0,0,0,.13-3.25L938.93,541c-1-1.09-3-4.54-3.35-9.76a2.27,2.27,0,0,1,3.59-2,22.1,22.1,0,0,0,11.8,4,19.92,19.92,0,0,0,13.72-4.45c4-3.38,6.42-8.47,6.42-14.89V459.73A2.3,2.3,0,0,0,967.33,458Z" transform="translate(-273.09 -420.04)"/></g><path class="cls-1" d="M273.09,580V530h34v7.13h-26v15.19h21.24v7.2H281.08V580Z" transform="translate(-273.09 -420.04)"/><path class="cls-1" d="M352.55,580a17.56,17.56,0,1,1,13.06-5.19A17.65,17.65,0,0,1,352.55,580Zm0-6.34a9.3,9.3,0,0,0,7.42-3.24,13.36,13.36,0,0,0,2.73-8.78c0-7.28-4.1-12-10.15-12s-10.15,4.54-10.15,12c0,3.67.94,6.62,2.81,8.78a9.1,9.1,0,0,0,3.29,2.47,9,9,0,0,0,4.05.77Z" transform="translate(-273.09 -420.04)"/><path class="cls-1" d="M397.89,565.86V544.24h7.85v20.88c0,5.55,2.45,8.36,7.27,8.36,5,0,8.5-3.17,8.5-8.57V544.24h7.85v34.92h-7.57v-4.68A12.37,12.37,0,0,1,411,580C402.64,580,397.89,574.72,397.89,565.86Z" transform="translate(-273.09 -420.04)"/><path class="cls-1" d="M456.56,580V545.16h7.56v4.61c2.44-3.67,6.12-5.47,10.94-5.47,8.57,0,13.39,5.18,13.39,14V580h-7.77V559.37c0-5.69-2.52-8.57-7.64-8.57s-8.71,3.24-8.71,8.78V580Z" transform="translate(-273.09 -420.04)"/><path class="cls-1" d="M520.34,574.74a20.46,20.46,0,0,1,0-26.07,14.67,14.67,0,0,1,11.52-5.25c5.4,0,9.43,2,12,6.12V529.16h7.78v50h-7.56V573.4c-2.67,4.4-6.77,6.63-12.17,6.63a14.74,14.74,0,0,1-11.57-5.29Zm20.59-4.41a12.91,12.91,0,0,0,3-8.57,12.69,12.69,0,0,0-3-8.5,9.2,9.2,0,0,0-7.2-3.46c-6.12,0-9.94,4.54-9.94,12s3.82,12,9.94,12a9.09,9.09,0,0,0,7.2-3.47Z" transform="translate(-273.09 -420.04)"/><path class="cls-1" d="M578.84,569a9.86,9.86,0,0,1,3.89-7.85,14.66,14.66,0,0,1,9.64-3.17,14.41,14.41,0,0,1,10.09,3.82v-4.25c0-5-2.67-7.85-7.35-7.85s-7.7,2.45-8.86,7.28l-7.12-1.52c1.94-7.48,7.84-12.09,16.27-12.09,9.22,0,14.9,5,14.9,14.25v21.53h-7.55v-4.39A12.16,12.16,0,0,1,592.24,580C584.24,580,578.84,575.71,578.84,569Zm23.62.07V568a10.91,10.91,0,0,0-8.79-4.32c-4,0-6.77,2.16-6.77,5.26s2.67,5.33,6.77,5.33c3.46,0,6.41-1.73,8.79-5.19Z" transform="translate(-273.09 -420.04)"/><path class="cls-1" d="M642.92,568.52V550.8h-5.41v-6.5h5.62l1.8-10.3h5.83v10.3h13.9v6.55H650.72V568.3c0,3.24,1.16,4.83,3.53,4.83s4.18-2,6-6l6,3.09c-3,6.56-7.2,9.87-12.68,9.87C646.48,580,642.92,576.22,642.92,568.52Z" transform="translate(-273.09 -420.04)"/><path class="cls-1" d="M693.5,534.56a4.63,4.63,0,0,1,1.4-3.39,4.72,4.72,0,0,1,1.57-1,4.66,4.66,0,0,1,1.85-.29,4.69,4.69,0,0,1,3.43,1.28,4.67,4.67,0,0,1,1.06,1.53,4.71,4.71,0,0,1,0,3.66,4.67,4.67,0,0,1-2.65,2.53,6.08,6.08,0,0,1-3.68,0,4.59,4.59,0,0,1-2.63-2.51A4.57,4.57,0,0,1,693.5,534.56Zm.93,45.43V545.12h7.78V580Z" transform="translate(-273.09 -420.04)"/><path class="cls-1" d="M748.64,580a17.69,17.69,0,1,1,13.07-5.19A17.66,17.66,0,0,1,748.64,580Zm0-6.34a9.26,9.26,0,0,0,7.41-3.24,13.29,13.29,0,0,0,2.74-8.78c0-7.28-4.11-12-10.15-12s-10.16,4.54-10.16,12c0,3.67.94,6.62,2.81,8.78a9.07,9.07,0,0,0,7.35,3.24Z" transform="translate(-273.09 -420.04)"/><path class="cls-1" d="M794.07,580V545.16h7.56v4.61c2.45-3.67,6.12-5.47,11-5.47,8.57,0,13.39,5.18,13.39,14V580H818.2V559.37c0-5.69-2.53-8.57-7.64-8.57s-8.71,3.24-8.71,8.78V580Z" transform="translate(-273.09 -420.04)"/></svg>