<svg width="25" height="24" viewBox="0 0 25 24" fill="none" xmlns="http://www.w3.org/2000/svg">
<path d="M14.328 8.91401H8.74304C8.47782 8.91401 8.22347 8.80865 8.03593 8.62111C7.8484 8.43358 7.74304 8.17922 7.74304 7.91401C7.74304 7.64879 7.8484 7.39444 8.03593 7.2069C8.22347 7.01936 8.47782 6.91401 8.74304 6.91401H16.743C16.8745 6.91361 17.0047 6.93921 17.1262 6.98932C17.2477 7.03943 17.3581 7.11308 17.451 7.20602C17.544 7.29895 17.6176 7.40935 17.6677 7.53085C17.7178 7.65236 17.7434 7.78257 17.743 7.91401V15.914C17.743 16.1792 17.6377 16.4336 17.4501 16.6211C17.2626 16.8086 17.0083 16.914 16.743 16.914C16.4778 16.914 16.2235 16.8086 16.0359 16.6211C15.8484 16.4336 15.743 16.1792 15.743 15.914V10.328L8.96404 17.107C8.7764 17.2945 8.52196 17.3998 8.25668 17.3997C7.99141 17.3996 7.73705 17.2941 7.54954 17.1065C7.36203 16.9189 7.25674 16.6644 7.25684 16.3992C7.25693 16.1339 7.3624 15.8795 7.55004 15.692L14.328 8.91401Z" fill="#F3FFF3"/>
</svg>
