<svg width="40" height="40" viewBox="0 0 40 40" fill="none" xmlns="http://www.w3.org/2000/svg">
<path d="M26.6127 32.7962C33.8438 31.549 38.071 24.3965 38.2948 17.4815C38.4501 12.6833 36.1668 7.13981 30.5856 7.20417C29.3936 7.21795 28.3871 7.69119 27.3125 8.15764C26.3553 8.57279 25.5219 9.24844 24.8351 10.0335C23.5702 11.4801 22.6232 13.2996 22.8548 15.2745C23.3888 19.8196 28.5387 20.9274 31.629 18.8545C31.9373 23.9537 30.0757 29.1861 26.6127 32.7962Z" stroke="#5AEE55" stroke-width="3" stroke-miterlimit="1.5" stroke-linecap="round" stroke-linejoin="round"/>
<path d="M5.1026 32.6332C13.3828 32.6332 16.9485 24.3965 17.1723 17.4815C17.3275 12.6833 15.0442 7.13981 9.46309 7.20417C8.27105 7.21795 7.2646 7.69119 6.18994 8.15763C5.23305 8.57279 4.39928 9.24843 3.71256 10.0335C2.44767 11.4801 1.50064 13.2996 1.73261 15.2745C2.26622 19.8196 8.13945 20.578 11.2297 18.5051C11.5381 23.6043 8.56558 29.0231 5.1026 32.6332Z" stroke="#5AEE55" stroke-width="3" stroke-miterlimit="1.5" stroke-linecap="round" stroke-linejoin="round"/>
</svg>
