<svg width="40" height="40" viewBox="0 0 40 40" fill="none" xmlns="http://www.w3.org/2000/svg">
<path d="M13.7751 7.28857C6.32869 7.28857 1.92779 15.5261 1.70392 22.442C1.54866 27.2405 3.83184 32.785 9.41371 32.7207C10.6059 32.7069 11.6128 32.2339 12.6872 31.7674C13.6446 31.3522 14.4786 30.6761 15.165 29.891C16.4304 28.4445 17.3775 26.6248 17.1455 24.6496C16.6118 20.1036 10.7375 19.3455 7.64687 21.4187C7.33883 16.3188 10.3117 10.8988 13.7751 7.28857Z" stroke="#5AEE55" stroke-width="3" stroke-miterlimit="1.5" stroke-linecap="round" stroke-linejoin="round"/>
<path d="M34.8967 7.28821C27.6647 8.53594 21.6549 15.5014 21.431 22.4172C21.2754 27.2157 24.9535 32.7845 30.5353 32.7202C32.6303 32.6959 34.9303 31.4418 36.2866 29.8905C37.5516 28.444 38.499 26.6243 38.267 24.6491C37.7334 20.1031 31.8591 19.345 28.7684 21.4181C28.46 16.3183 31.4333 10.8984 34.8967 7.28821Z" stroke="#5AEE55" stroke-width="3" stroke-miterlimit="1.5" stroke-linecap="round" stroke-linejoin="round"/>
</svg>
