<svg width="40" height="40" viewBox="0 0 40 40" fill="none" xmlns="http://www.w3.org/2000/svg">
<path d="M20 36.6667C10.795 36.6667 3.33337 29.205 3.33337 20C3.33337 10.795 10.795 3.33337 20 3.33337C29.205 3.33337 36.6667 10.795 36.6667 20C36.6667 29.205 29.205 36.6667 20 36.6667ZM20 33.3334C23.5363 33.3334 26.9276 31.9286 29.4281 29.4281C31.9286 26.9276 33.3334 23.5363 33.3334 20C33.3334 16.4638 31.9286 13.0724 29.4281 10.572C26.9276 8.07147 23.5363 6.66671 20 6.66671C16.4638 6.66671 13.0724 8.07147 10.572 10.572C8.07147 13.0724 6.66671 16.4638 6.66671 20C6.66671 23.5363 8.07147 26.9276 10.572 29.4281C13.0724 31.9286 16.4638 33.3334 20 33.3334ZM17.3567 18.3334H26.6667C27.1087 18.3334 27.5327 18.509 27.8452 18.8215C28.1578 19.1341 28.3334 19.558 28.3334 20C28.3334 20.4421 28.1578 20.866 27.8452 21.1786C27.5327 21.4911 27.1087 21.6667 26.6667 21.6667H17.3567L21.5834 25.8934C21.887 26.2077 22.055 26.6287 22.0512 27.0657C22.0474 27.5027 21.8721 27.9207 21.5631 28.2297C21.2541 28.5388 20.836 28.714 20.399 28.7178C19.962 28.7216 19.541 28.5536 19.2267 28.25L12.155 21.1784C11.9997 21.024 11.8765 20.8403 11.7924 20.6381C11.7083 20.4359 11.665 20.2191 11.665 20C11.665 19.781 11.7083 19.5642 11.7924 19.362C11.8765 19.1597 11.9997 18.9761 12.155 18.8217L19.2267 11.75C19.541 11.4464 19.962 11.2785 20.399 11.2822C20.836 11.286 21.2541 11.4613 21.5631 11.7703C21.8721 12.0794 22.0474 12.4974 22.0512 12.9344C22.055 13.3714 21.887 13.7924 21.5834 14.1067L17.3567 18.3334Z" fill="#5AEE55"/>
</svg>
