<svg width="40" height="40" viewBox="0 0 40 40" fill="none" xmlns="http://www.w3.org/2000/svg">
<path d="M20 36.6666C10.795 36.6666 3.33337 29.2049 3.33337 19.9999C3.33337 10.7949 10.795 3.33325 20 3.33325C29.205 3.33325 36.6667 10.7949 36.6667 19.9999C36.6667 29.2049 29.205 36.6666 20 36.6666ZM20 33.3333C23.5363 33.3333 26.9276 31.9285 29.4281 29.428C31.9286 26.9275 33.3334 23.5361 33.3334 19.9999C33.3334 16.4637 31.9286 13.0723 29.4281 10.5718C26.9276 8.07134 23.5363 6.66659 20 6.66659C16.4638 6.66659 13.0724 8.07134 10.572 10.5718C8.07147 13.0723 6.66671 16.4637 6.66671 19.9999C6.66671 23.5361 8.07147 26.9275 10.572 29.428C13.0724 31.9285 16.4638 33.3333 20 33.3333ZM22.6434 21.6666H13.3334C12.8913 21.6666 12.4674 21.491 12.1549 21.1784C11.8423 20.8659 11.6667 20.4419 11.6667 19.9999C11.6667 19.5579 11.8423 19.134 12.1549 18.8214C12.4674 18.5088 12.8913 18.3333 13.3334 18.3333H22.6434L18.4167 14.1066C18.2575 13.9528 18.1306 13.7689 18.0432 13.5656C17.9559 13.3623 17.9099 13.1436 17.908 12.9223C17.906 12.701 17.9482 12.4815 18.032 12.2767C18.1158 12.0718 18.2396 11.8857 18.396 11.7293C18.5525 11.5728 18.7386 11.449 18.9434 11.3652C19.1483 11.2814 19.3677 11.2392 19.589 11.2412C19.8103 11.2431 20.029 11.2891 20.2324 11.3764C20.4357 11.4638 20.6196 11.5907 20.7734 11.7499L27.845 18.8216C28.0003 18.976 28.1236 19.1596 28.2077 19.3618C28.2918 19.5641 28.3351 19.7809 28.3351 19.9999C28.3351 20.2189 28.2918 20.4358 28.2077 20.638C28.1236 20.8402 28.0003 21.0238 27.845 21.1783L20.7734 28.2499C20.6196 28.4091 20.4357 28.5361 20.2324 28.6234C20.029 28.7108 19.8103 28.7567 19.589 28.7587C19.3677 28.7606 19.1483 28.7184 18.9434 28.6346C18.7386 28.5508 18.5525 28.4271 18.396 28.2706C18.2396 28.1141 18.1158 27.928 18.032 27.7232C17.9482 27.5183 17.906 27.2989 17.908 27.0776C17.9099 26.8563 17.9559 26.6376 18.0432 26.4342C18.1306 26.2309 18.2575 26.047 18.4167 25.8933L22.6434 21.6666Z" fill="#5AEE55"/>
</svg>
