<svg width="80" height="81" viewBox="0 0 80 81" fill="none" xmlns="http://www.w3.org/2000/svg">
<path d="M40 19.5651C45.1547 19.5651 49.3334 15.3864 49.3334 10.2318C49.3334 5.07711 45.1547 0.898438 40 0.898438C34.8454 0.898438 30.6667 5.07711 30.6667 10.2318C30.6667 15.3864 34.8454 19.5651 40 19.5651Z" fill="#5AEE55"/>
<path d="M59.2332 60.1317C57.8794 61.4855 57.8794 63.6805 59.2332 65.0343C60.5871 66.3881 62.782 66.3881 64.1359 65.0343C65.4897 63.6805 65.4897 61.4855 64.1359 60.1317C62.782 58.7779 60.5871 58.7779 59.2332 60.1317Z" fill="#5AEE55"/>
<path d="M40 80.8986C45.1547 80.8986 49.3334 76.7199 49.3334 71.5653C49.3334 66.4106 45.1547 62.2319 40 62.2319C34.8454 62.2319 30.6667 66.4106 30.6667 71.5653C30.6667 76.7199 34.8454 80.8986 40 80.8986Z" fill="#5AEE55"/>
<path d="M61.3333 40.8983C61.3333 46.0529 65.512 50.2316 70.6667 50.2316C75.8213 50.2316 80 46.0529 80 40.8983C80 35.7436 75.8213 31.5649 70.6667 31.5649C65.512 31.5649 61.3333 35.7436 61.3333 40.8983Z" fill="#5AEE55"/>
<path d="M2.09808e-05 40.8983C2.09808e-05 46.0529 4.1787 50.2316 9.33335 50.2316C14.488 50.2316 18.6667 46.0529 18.6667 40.8983C18.6667 35.7436 14.488 31.5649 9.33335 31.5649C4.1787 31.5649 2.09808e-05 35.7436 2.09808e-05 40.8983Z" fill="#5AEE55"/>
<path d="M15.8642 16.7626C14.5104 18.1164 14.5104 20.3114 15.8642 21.6652C17.218 23.019 19.413 23.019 20.7668 21.6652C22.1206 20.3114 22.1206 18.1164 20.7668 16.7626C19.413 15.4087 17.218 15.4087 15.8642 16.7626Z" fill="#5AEE55"/>
<path d="M20.7667 60.1317C22.1205 61.4855 22.1205 63.6805 20.7667 65.0343C19.4129 66.3881 17.2179 66.3881 15.8641 65.0343C14.5103 63.6805 14.5103 61.4855 15.8641 60.1317C17.2179 58.7779 19.4129 58.7779 20.7667 60.1317Z" fill="#5AEE55"/>
<path d="M64.1359 16.7626C65.4897 18.1164 65.4897 20.3114 64.1359 21.6652C62.7821 23.019 60.5871 23.019 59.2333 21.6652C57.8795 20.3114 57.8795 18.1164 59.2333 16.7626C60.5871 15.4087 62.7821 15.4087 64.1359 16.7626Z" fill="#5AEE55"/>
<path fill-rule="evenodd" clip-rule="evenodd" d="M56.8024 8.90942C58.1062 9.59428 58.608 11.2064 57.9232 12.5103L55.319 17.468C54.6342 18.7718 53.0222 19.2736 51.7182 18.5888C50.4144 17.9039 49.9126 16.2918 50.5974 14.9879L53.2016 10.0302C53.8864 8.72636 55.4984 8.22457 56.8024 8.90942Z" fill="#5AEE55"/>
<path fill-rule="evenodd" clip-rule="evenodd" d="M28.2819 63.2082C29.5856 63.8933 30.0875 65.5053 29.4027 66.8093L26.7984 71.7669C26.1137 73.0706 24.5015 73.5725 23.1977 72.8877C21.8938 72.2029 21.3921 70.5906 22.0769 69.2869L24.6809 64.329C25.3658 63.0253 26.9779 62.5234 28.2819 63.2082Z" fill="#5AEE55"/>
<path fill-rule="evenodd" clip-rule="evenodd" d="M23.1977 8.90942C21.8938 9.59428 21.3921 11.2064 22.0769 12.5103L24.6809 17.468C25.3658 18.7718 26.9779 19.2736 28.2819 18.5888C29.5856 17.9039 30.0875 16.2918 29.4027 14.9879L26.7984 10.0302C26.1137 8.72636 24.5015 8.22457 23.1977 8.90942Z" fill="#5AEE55"/>
<path fill-rule="evenodd" clip-rule="evenodd" d="M51.7182 63.2082C50.4144 63.8933 49.9126 65.5053 50.5974 66.8093L53.2016 71.7669C53.8864 73.0706 55.4984 73.5725 56.8024 72.8877C58.1062 72.2029 58.608 70.5906 57.9232 69.2869L55.319 64.329C54.6342 63.0253 53.0222 62.5234 51.7182 63.2082Z" fill="#5AEE55"/>
<path fill-rule="evenodd" clip-rule="evenodd" d="M17.6073 29.3396C16.9318 30.6484 15.3233 31.1615 14.0146 30.486L9.03841 27.9175C7.72974 27.2419 7.21646 25.6334 7.89198 24.3247C8.56752 23.016 10.1761 22.5027 11.4848 23.1782L16.4609 25.7469C17.7696 26.4224 18.2829 28.0311 17.6073 29.3396Z" fill="#5AEE55"/>
<path fill-rule="evenodd" clip-rule="evenodd" d="M71.8685 23.8686C71.1744 22.5697 69.5587 22.0794 68.2597 22.7735L63.3208 25.4128C62.0219 26.107 61.5315 27.7225 62.2256 29.0215C62.9197 30.3204 64.5355 30.8108 65.8344 30.1167L70.7733 27.4773C72.0723 26.7832 72.5627 25.1676 71.8685 23.8686Z" fill="#5AEE55"/>
<path fill-rule="evenodd" clip-rule="evenodd" d="M17.6073 52.4573C16.9318 51.1485 15.3233 50.6352 14.0146 51.3109L9.03841 53.8795C7.72974 54.5549 7.21646 56.1635 7.89198 57.4723C8.56752 58.7808 10.1761 59.2941 11.4848 58.6187L16.4609 56.0501C17.7696 55.3744 18.2829 53.7659 17.6073 52.4573Z" fill="#5AEE55"/>
<path fill-rule="evenodd" clip-rule="evenodd" d="M71.8685 57.9285C71.1744 59.2275 69.5587 59.7179 68.2597 59.0237L63.3208 56.3843C62.0219 55.6901 61.5315 54.0744 62.2256 52.7755C62.9197 51.4765 64.5355 50.9864 65.8344 51.6806L70.7733 54.3197C72.0723 55.0139 72.5627 56.6296 71.8685 57.9285Z" fill="#5AEE55"/>
</svg>
